<?xml version="1.0" standalone="no"?>
<!DOCTYPE svg PUBLIC "-//W3C//DTD SVG 20010904//EN"
 "http://www.w3.org/TR/2001/REC-SVG-20010904/DTD/svg10.dtd">
<svg version="1.0" xmlns="http://www.w3.org/2000/svg"
 width="900.000000pt" height="900.000000pt" viewBox="0 0 900.000000 900.000000"
 preserveAspectRatio="xMidYMid meet">
<metadata>
Created by potrace 1.10, written by Peter Selinger 2001-2011
</metadata>
<g transform="translate(0.000000,900.000000) scale(0.100000,-0.100000)"
fill="#000000" stroke="none">
<path d="M4337 6454 c-12 -14 -35 -35 -50 -46 -27 -20 -30 -20 -82 -3 -64 20
-93 10 -101 -35 -4 -16 -17 -39 -31 -52 -20 -19 -36 -23 -86 -23 -67 0 -66 1
-82 -78 -9 -44 -51 -77 -96 -77 -47 0 -63 -24 -55 -84 7 -53 -8 -80 -64 -110
-52 -27 -58 -47 -37 -109 17 -51 11 -72 -37 -115 -20 -18 -36 -39 -36 -47 0
-9 13 -39 29 -68 28 -50 29 -54 15 -87 -8 -19 -19 -37 -24 -40 -4 -3 -11 -17
-15 -31 -6 -22 1 -34 39 -72 50 -49 53 -61 31 -124 -8 -23 -12 -48 -9 -56 2
-7 25 -23 49 -35 59 -29 79 -61 71 -112 -8 -54 6 -80 45 -80 37 0 85 -24 99
-49 5 -11 10 -36 10 -55 0 -45 25 -60 82 -51 54 10 84 -8 114 -67 21 -41 29
-48 55 -48 16 0 44 7 61 16 30 15 34 15 64 -1 17 -9 41 -30 53 -46 22 -29 63
-40 76 -19 4 6 24 19 46 30 37 19 41 20 71 4 18 -9 38 -23 46 -30 25 -25 57
-16 91 26 39 49 70 58 120 35 53 -23 71 -17 98 34 36 68 39 70 116 73 l72 3 5
45 c9 70 32 97 90 105 63 9 74 23 66 84 -5 40 -3 52 16 76 12 15 36 34 54 41
49 20 55 40 35 100 -21 59 -16 79 33 122 35 31 48 73 27 87 -15 9 -41 66 -41
88 0 11 11 35 25 53 36 47 32 71 -20 121 -48 45 -56 75 -30 109 31 41 5 104
-43 104 -8 0 -25 10 -38 23 -20 19 -24 32 -24 89 l0 67 -37 7 c-64 12 -113 41
-113 69 0 32 -18 77 -35 91 -9 6 -30 8 -52 4 -58 -10 -122 27 -123 72 0 10
-10 24 -22 32 -20 13 -29 13 -70 -1 -54 -17 -91 -12 -116 18 -38 47 -45 51
-76 45 -17 -4 -37 -14 -44 -24 -20 -26 -102 -22 -130 6 -29 29 -57 28 -85 -4z
m99 -31 c9 -13 26 -18 59 -18 34 0 49 5 56 18 11 19 18 21 37 8 21 -13 -12
-70 -49 -83 -33 -11 -37 -23 -11 -37 14 -8 10 -10 -21 -11 -32 0 -37 3 -33 18
3 11 -5 23 -26 37 -38 25 -53 47 -45 69 8 21 17 20 33 -1z m-76 -30 c-1 -53
-73 -105 -126 -91 -30 8 -54 32 -54 55 0 15 36 18 45 3 12 -19 55 -10 87 20
38 34 48 37 48 13z m310 4 c0 -32 77 -50 107 -25 16 13 43 3 43 -16 0 -50
-126 -61 -161 -15 -23 29 -25 69 -4 69 8 0 15 -6 15 -13z m210 -71 c0 -22 44
-54 80 -58 52 -5 47 -32 -7 -36 -57 -4 -103 28 -103 73 0 18 3 35 6 38 9 9 24
-2 24 -17z m-730 -20 c0 -57 -87 -105 -139 -76 -33 17 -25 30 20 30 34 0 46 6
72 35 36 41 47 44 47 11z m910 -99 c1 -33 26 -61 68 -72 42 -12 54 -39 21 -48
-27 -7 -78 13 -102 41 -28 30 -24 124 4 107 5 -4 9 -16 9 -28z m-1082 -27 c2
-16 -8 -38 -29 -63 -30 -36 -34 -38 -83 -35 -54 3 -65 19 -19 29 31 6 73 30
73 41 0 4 5 19 10 33 13 33 44 30 48 -5z m512 -54 c0 -13 -8 -30 -17 -37 -32
-27 -73 -92 -73 -117 0 -40 37 -89 76 -102 34 -11 35 -13 18 -31 -9 -10 -25
-21 -35 -24 -23 -8 -49 -55 -49 -90 0 -41 27 -82 62 -95 l33 -12 -25 -16 c-64
-44 -80 -64 -80 -98 0 -37 32 -74 73 -84 33 -9 27 -28 -17 -53 -54 -30 -80
-75 -66 -113 14 -35 49 -74 67 -74 33 0 93 -33 93 -51 0 -22 19 -25 44 -6 25
18 17 58 -14 73 -14 7 -46 20 -73 29 -87 31 -81 85 12 106 55 12 91 36 91 61
0 21 -36 57 -57 58 -29 0 -93 36 -93 51 0 20 12 30 70 54 61 26 80 43 80 76 0
23 -5 28 -32 34 -108 21 -136 48 -94 90 14 14 37 25 51 25 90 0 102 102 15
123 -40 10 -90 45 -90 64 0 9 18 39 41 65 22 27 45 64 50 83 10 34 11 35 52
29 205 -28 387 -186 462 -401 34 -93 35 -269 4 -358 -67 -193 -212 -336 -399
-394 -48 -15 -92 -21 -170 -21 -114 0 -183 16 -277 65 -95 50 -210 169 -255
265 -51 108 -53 121 -53 260 0 139 3 153 53 260 89 187 288 322 485 329 33 1
37 -2 37 -23z m722 -125 c2 -28 10 -37 45 -55 51 -25 56 -46 10 -46 -50 0 -87
40 -87 94 0 68 25 74 32 7z m-1382 -10 c0 -30 -8 -46 -36 -75 -24 -25 -43 -36
-58 -34 -27 4 -28 40 -1 48 34 9 65 43 65 71 0 14 3 29 6 32 14 13 24 -5 24
-42z m1470 -188 c0 -26 8 -45 27 -65 20 -21 24 -31 16 -39 -20 -20 -58 -2 -76
36 -20 41 -21 59 -7 86 18 33 40 23 40 -18z m-1554 -9 c10 -52 -6 -97 -38
-108 -19 -7 -31 -6 -43 4 -15 12 -13 16 14 37 25 20 31 32 31 64 0 51 26 54
36 3z m44 -51 c0 -22 -2 -25 -10 -13 -13 20 -13 40 0 40 6 0 10 -12 10 -27z
m1437 -55 c-2 -13 -4 -5 -4 17 -1 22 1 32 4 23 2 -10 2 -28 0 -40z m-1470
-155 c-2 -16 -4 -5 -4 22 0 28 2 40 4 28 2 -13 2 -35 0 -50z m1573 33 c0 -18
7 -39 15 -46 17 -14 20 -40 4 -40 -31 0 -65 91 -42 113 14 15 23 5 23 -27z
m-1620 -27 c0 -30 -34 -79 -56 -79 -11 0 -11 5 -2 25 6 14 15 25 20 25 4 0 8
15 8 33 0 19 3 37 7 40 10 11 23 -14 23 -44z m1517 -146 c-3 -10 -5 -2 -5 17
0 19 2 27 5 18 2 -10 2 -26 0 -35z"/>
<path d="M3073 4448 c-38 -67 -83 -202 -83 -251 0 -21 9 -31 40 -47 37 -19 58
-20 329 -20 185 0 292 -4 296 -10 4 -6 -1 -25 -10 -43 -19 -38 -55 -232 -55
-299 0 -108 -52 -197 -129 -223 -27 -9 -55 -24 -63 -33 -29 -35 -82 -195 -76
-234 3 -22 7 -23 97 -26 99 -3 166 11 245 52 44 22 122 96 137 129 5 12 13 29
18 37 26 46 39 83 54 150 19 87 47 290 47 338 0 47 40 212 75 312 28 80 36
110 30 120 -4 6 -137 10 -368 10 -383 1 -434 6 -510 49 -49 27 -52 27 -74 -11z"/>
<path d="M4152 4473 c-21 -8 -64 -112 -87 -211 -21 -88 -20 -91 28 -112 38
-18 67 -20 335 -20 190 0 292 -4 292 -10 0 -6 -4 -18 -9 -28 -19 -37 -41 -119
-41 -152 -1 -65 -37 -275 -52 -305 -23 -44 -58 -72 -104 -84 -44 -12 -68 -38
-92 -101 -19 -51 -43 -163 -37 -177 3 -9 32 -13 99 -13 131 0 230 31 298 95
63 58 107 126 137 215 18 52 51 248 51 302 0 79 45 293 76 366 8 18 14 41 14
52 0 11 7 35 16 54 33 68 45 66 -358 66 -384 1 -435 6 -511 49 -21 11 -39 21
-40 20 -1 0 -8 -3 -15 -6z"/>
<path d="M5187 4427 c-32 -67 -63 -160 -71 -214 -6 -39 -4 -43 28 -62 18 -12
49 -21 68 -21 19 0 37 -3 41 -6 3 -4 -11 -27 -33 -53 -21 -25 -50 -70 -65 -99
-27 -54 -62 -220 -51 -247 4 -13 36 -15 189 -15 l184 0 16 33 c35 74 67 182
59 205 -2 8 -27 12 -67 12 -79 0 -94 13 -72 67 8 22 33 52 56 71 42 32 43 32
156 32 115 0 138 -7 114 -36 -19 -23 -40 -163 -28 -185 5 -11 14 -19 19 -19
16 0 44 -33 64 -74 17 -36 17 -40 1 -82 -17 -45 -65 -94 -92 -94 -8 0 -32 -17
-52 -38 -54 -57 -78 -62 -311 -62 -232 0 -229 1 -257 -78 -26 -69 -54 -183
-48 -193 4 -5 129 -9 309 -9 278 0 309 2 367 20 163 52 232 163 263 420 9 74
23 187 31 250 8 63 15 132 15 153 0 43 25 153 47 207 7 19 15 49 16 65 l2 30
-355 6 c-195 3 -368 10 -385 14 -16 4 -47 19 -67 32 -21 12 -44 23 -51 23 -8
0 -25 -24 -40 -53z"/>
<path d="M3039 3940 c-21 -20 -49 -112 -49 -164 0 -22 -6 -95 -15 -161 -8 -66
-22 -183 -30 -260 -9 -77 -21 -178 -27 -225 -6 -47 -12 -101 -12 -120 l-1 -35
117 -3 c165 -4 170 -1 191 120 9 52 17 116 17 144 0 27 7 87 15 134 8 47 15
108 15 135 0 28 7 88 15 135 8 47 15 107 15 134 0 27 7 76 16 108 9 32 15 60
13 62 -2 3 -62 6 -134 8 -104 2 -132 0 -146 -12z"/>
<path d="M4106 3948 c-8 -4 -18 -20 -25 -35 -14 -36 -41 -195 -41 -242 0 -20
-6 -90 -15 -156 -8 -66 -21 -178 -30 -250 -8 -71 -17 -152 -21 -180 -3 -27 -6
-63 -7 -80 l-2 -30 105 -3 c58 -2 120 0 137 3 46 8 65 50 73 155 7 90 22 215
45 395 8 61 15 130 15 155 1 25 9 92 19 150 11 58 16 108 13 112 -9 9 -251 15
-266 6z"/>
<path d="M5596 3829 c-55 -64 -16 -149 68 -149 58 0 86 30 86 91 0 60 -29 89
-87 89 -34 0 -46 -6 -67 -31z"/>
<path d="M5461 3003 c-48 -24 -66 -71 -47 -118 18 -41 55 -59 106 -51 40 6 80
48 80 84 0 31 -27 70 -61 88 -35 17 -36 17 -78 -3z"/>
<path d="M4615 2950 l-210 -5 -9 -27 c-6 -17 -6 -42 0 -65 l9 -38 90 -3 c49
-2 94 -7 98 -11 10 -10 -10 -86 -30 -116 -7 -11 -13 -41 -13 -66 0 -39 5 -51
26 -68 40 -31 89 -28 126 9 34 35 34 51 -2 140 -12 30 -23 66 -24 80 -1 25 0
25 88 28 50 2 96 8 103 14 17 13 17 102 1 115 -22 17 -39 18 -253 13z"/>
<path d="M3505 2829 c-10 -26 -1 -304 10 -302 14 4 19 293 6 306 -7 7 -12 5
-16 -4z"/>
<path d="M2650 2690 c0 -87 4 -140 10 -140 6 0 10 53 10 140 0 87 -4 140 -10
140 -6 0 -10 -53 -10 -140z"/>
<path d="M2260 2785 c-14 -16 -6 -35 16 -35 11 0 14 -22 14 -119 0 -90 3 -121
14 -130 8 -7 17 -8 20 -3 3 5 6 71 7 147 1 106 -2 140 -12 146 -21 13 -45 11
-59 -6z"/>
<path d="M2367 2793 c-12 -12 -7 -41 8 -47 9 -3 15 -19 15 -41 0 -23 5 -35 14
-35 17 0 29 99 14 118 -11 13 -40 16 -51 5z"/>
<path d="M2457 2794 c-12 -13 -8 -42 8 -48 9 -3 15 -19 15 -41 0 -24 5 -35 15
-35 18 0 31 64 19 99 -9 25 -42 40 -57 25z"/>
<path d="M2813 2784 c-8 -22 6 -32 52 -36 l40 -3 3 -82 c2 -46 7 -84 12 -84
34 -6 35 -3 40 91 4 78 8 94 20 91 8 -2 31 -7 50 -10 39 -7 51 -32 43 -93 -7
-48 3 -88 22 -88 12 0 15 19 15 103 0 101 0 102 -27 115 -37 17 -74 15 -102
-4 -22 -16 -25 -16 -51 0 -37 21 -109 22 -117 0z"/>
<path d="M3144 2785 c-4 -9 1 -24 10 -34 9 -10 16 -32 16 -49 0 -22 5 -32 15
-32 13 0 15 11 13 63 -3 56 -5 62 -26 65 -13 2 -25 -3 -28 -13z"/>
<path d="M3234 2785 c-10 -24 5 -35 47 -35 l39 0 0 -69 0 -70 -42 -3 c-31 -2
-44 -8 -46 -20 -3 -16 6 -18 72 -18 74 0 97 10 78 33 -5 7 -12 45 -14 86 -3
62 -7 76 -27 92 -28 23 -99 26 -107 4z"/>
<path d="M3663 2784 c-8 -23 7 -32 57 -36 l45 -3 3 -88 c2 -77 5 -88 20 -85
14 3 17 18 20 95 2 82 0 95 -18 113 -26 26 -117 29 -127 4z"/>
<path d="M3945 2771 c-16 -33 -38 -33 -56 0 -11 21 -49 26 -48 7 0 -7 9 -26
19 -43 32 -52 60 -105 60 -115 0 -6 -9 -10 -19 -10 -11 0 -32 -5 -48 -11 -41
-15 -12 -29 65 -29 59 0 62 1 62 24 0 13 -8 38 -17 55 -15 25 -16 34 -5 48 6
10 16 28 22 41 17 39 44 24 54 -30 4 -22 13 -38 20 -38 19 0 27 51 15 94 -10
37 -29 45 -58 27 -9 -6 -22 -6 -33 0 -14 7 -20 3 -33 -20z"/>
<path d="M4124 2782 c-12 -9 -25 -27 -28 -38 -9 -30 9 -71 33 -79 36 -11 43 4
21 41 -21 32 -21 34 -3 41 10 3 21 8 25 10 16 8 48 -38 48 -70 0 -36 -33 -77
-62 -77 -27 0 -48 -11 -48 -26 0 -10 14 -14 48 -14 57 0 86 24 96 82 11 63 -3
117 -35 133 -37 20 -69 19 -95 -3z"/>
<path d="M5461 2703 c-48 -24 -66 -71 -47 -118 16 -37 47 -55 97 -55 36 0 89
52 89 88 0 31 -27 70 -61 88 -35 17 -36 17 -78 -3z"/>
<path d="M2804 2697 c-3 -8 -4 -39 -2 -68 2 -42 7 -55 21 -57 16 -3 18 3 15
64 -2 43 -8 69 -15 72 -7 2 -15 -3 -19 -11z"/>
<path d="M3657 2694 c-10 -11 -9 -112 2 -118 5 -4 17 -3 26 0 22 9 18 117 -5
122 -9 1 -19 0 -23 -4z"/>
</g>
</svg>
