<?xml version="1.0" standalone="no"?>
<!DOCTYPE svg PUBLIC "-//W3C//DTD SVG 20010904//EN"
 "http://www.w3.org/TR/2001/REC-SVG-20010904/DTD/svg10.dtd">
<svg version="1.0" xmlns="http://www.w3.org/2000/svg"
 width="900.000000pt" height="831.000000pt" viewBox="0 0 900.000000 831.000000"
 preserveAspectRatio="xMidYMid meet">
<metadata>
Created by potrace 1.10, written by Peter Selinger 2001-2011
</metadata>
<g transform="translate(0.000000,831.000000) scale(0.100000,-0.100000)"
fill="#ffffff" stroke="none">
<path d="M4406 7705 c-13 -14 -34 -40 -46 -58 -39 -56 -68 -72 -133 -70 -33 1
-68 8 -82 17 -13 8 -42 18 -64 22 -35 6 -43 3 -65 -21 -14 -16 -31 -46 -37
-68 -6 -21 -28 -58 -49 -81 l-39 -41 -101 2 c-110 3 -140 -6 -140 -40 -1 -47
-30 -161 -47 -180 -28 -31 -93 -57 -146 -57 -37 0 -53 -5 -72 -25 -28 -27 -30
-47 -14 -129 20 -96 -15 -147 -133 -196 -36 -15 -60 -31 -67 -47 -12 -26 -5
-89 9 -98 5 -3 16 -30 25 -60 13 -47 14 -59 2 -88 -13 -30 -100 -117 -117
-117 -4 0 -14 -14 -23 -32 -14 -29 -14 -35 3 -67 10 -20 28 -45 40 -56 12 -11
30 -39 41 -63 25 -54 17 -85 -42 -163 -67 -90 -64 -113 27 -180 34 -25 63 -56
75 -82 l21 -42 -27 -70 c-43 -110 -43 -128 -3 -158 18 -13 49 -30 69 -36 20
-7 54 -27 75 -45 l39 -34 -3 -110 c-2 -106 -2 -112 20 -125 13 -8 48 -17 79
-21 114 -12 161 -50 173 -141 12 -83 25 -114 58 -131 23 -12 36 -13 60 -5 17
6 54 11 81 11 65 0 106 -27 136 -89 57 -118 56 -116 100 -119 22 -2 51 3 63
10 107 59 167 48 244 -48 69 -86 86 -90 157 -37 64 49 109 73 137 73 27 0 73
-24 129 -67 70 -53 106 -45 165 36 42 56 91 91 129 91 25 0 71 -17 129 -46 14
-8 35 -14 45 -14 20 0 73 48 73 67 0 23 41 100 65 123 25 23 35 25 128 26 56
0 108 1 114 2 21 3 42 57 49 126 6 56 12 71 38 98 27 27 47 36 116 51 47 9 91
24 100 33 12 11 15 40 15 124 0 120 8 138 77 171 18 8 50 24 71 34 21 11 45
31 52 45 14 28 16 22 -28 123 -10 21 -17 57 -17 81 0 36 6 49 38 82 22 21 55
52 75 67 53 40 51 75 -10 157 -43 57 -48 70 -48 115 1 45 6 58 48 112 68 88
65 108 -22 177 -39 31 -73 61 -78 68 -14 23 -7 125 10 152 9 13 19 43 23 66 6
34 3 45 -16 65 -13 14 -29 25 -35 25 -22 0 -99 38 -123 60 -36 34 -44 67 -37
152 4 42 4 85 1 96 -8 26 -46 41 -117 49 -32 3 -72 14 -89 25 -39 23 -69 89
-70 149 0 32 -7 55 -22 74 -21 27 -21 27 -114 21 -124 -9 -149 1 -192 83 -17
34 -32 67 -32 75 0 17 -43 46 -69 46 -11 0 -46 -11 -77 -25 -33 -15 -75 -25
-101 -25 -43 0 -48 3 -116 75 -87 91 -105 94 -183 35 -30 -22 -66 -45 -81 -51
-44 -16 -99 -1 -162 47 -68 51 -101 56 -135 19z m439 -45 c4 -6 -1 -35 -10
-65 -21 -66 -75 -111 -154 -129 -29 -6 -107 26 -128 52 -35 43 -63 93 -63 111
0 23 19 38 29 24 3 -5 26 -24 50 -41 36 -26 53 -32 95 -32 45 1 57 6 106 45
59 48 65 50 75 35z m-415 -90 c0 -107 -151 -192 -261 -146 -27 11 -38 25 -52
62 -21 56 -12 72 29 52 55 -27 112 -41 141 -34 15 4 50 31 77 61 27 30 53 52
58 49 4 -3 8 -23 8 -44z m510 43 c0 -17 67 -83 95 -93 33 -12 96 -5 137 16 31
16 68 18 68 5 0 -5 -9 -30 -19 -55 -17 -39 -25 -46 -63 -57 -93 -25 -192 10
-228 82 -24 47 -27 109 -5 109 8 0 15 -3 15 -7z m392 -149 c4 -16 20 -45 37
-64 29 -35 29 -35 112 -36 83 0 85 -1 81 -34 -3 -17 -80 -50 -114 -49 -42 0
-116 37 -140 69 -30 41 -37 82 -22 119 16 38 35 36 46 -5z m-1275 -11 c14 -35
14 -40 -5 -79 -12 -23 -37 -55 -58 -70 -32 -24 -45 -28 -105 -28 -58 0 -72 3
-93 23 -39 37 -24 51 48 44 51 -4 67 -2 95 15 36 22 71 72 71 101 0 44 27 41
47 -6z m767 -43 c5 -5 40 -10 77 -10 47 0 72 -5 83 -15 8 -8 30 -15 50 -15 19
0 41 -7 50 -15 8 -8 25 -15 38 -15 13 0 33 -7 44 -15 10 -8 29 -15 42 -15 12
0 25 -7 28 -15 4 -8 17 -15 30 -15 14 0 27 -7 30 -15 4 -8 14 -15 24 -15 10 0
23 -7 30 -15 7 -8 18 -15 25 -15 7 0 15 -7 19 -15 3 -8 10 -15 17 -15 41 0
339 -298 339 -339 0 -7 7 -14 15 -17 8 -4 15 -12 15 -19 0 -7 7 -18 15 -25 8
-7 15 -20 15 -30 0 -10 7 -20 15 -24 8 -3 15 -17 15 -31 0 -14 4 -25 10 -25 5
0 13 -12 16 -27 4 -16 13 -37 20 -48 8 -11 14 -29 14 -40 0 -11 7 -29 15 -39
8 -11 15 -36 15 -55 0 -20 7 -45 15 -55 10 -13 15 -43 15 -81 0 -35 5 -66 12
-73 18 -18 18 -256 1 -273 -11 -10 -13 14 -13 122 0 91 -5 147 -15 174 -8 22
-14 63 -15 90 0 28 -7 59 -15 69 -8 11 -15 33 -15 49 0 15 -7 35 -15 43 -8 9
-15 27 -15 40 0 14 -7 32 -15 40 -8 9 -15 24 -15 33 0 10 -7 24 -15 31 -8 7
-15 21 -15 31 0 10 -5 21 -11 24 -5 4 -14 17 -20 28 -14 33 -33 61 -46 70 -7
4 -13 14 -13 20 0 7 -13 27 -30 45 -16 18 -30 35 -30 38 0 16 -228 224 -247
224 -7 0 -16 6 -20 13 -9 13 -37 32 -70 46 -11 6 -24 15 -28 20 -3 6 -15 11
-26 11 -11 0 -22 7 -25 15 -4 8 -16 15 -29 15 -12 0 -28 7 -35 15 -7 8 -25 15
-41 15 -15 0 -34 7 -43 15 -8 8 -27 15 -43 15 -16 0 -37 6 -48 14 -11 7 -51
16 -88 19 -38 2 -74 10 -80 16 -17 17 -282 14 -332 -4 -22 -8 -62 -14 -88 -15
-29 0 -54 -6 -63 -15 -9 -8 -31 -15 -50 -15 -20 0 -42 -7 -50 -15 -9 -8 -27
-15 -40 -15 -14 0 -32 -7 -40 -15 -9 -8 -24 -15 -33 -15 -10 0 -24 -7 -31 -15
-7 -8 -20 -15 -30 -15 -10 0 -23 -7 -30 -15 -7 -8 -17 -15 -22 -15 -6 0 -27
-13 -48 -30 -21 -16 -42 -30 -48 -30 -5 0 -12 -7 -16 -15 -3 -8 -10 -15 -16
-15 -46 0 -303 -295 -341 -392 -6 -16 -15 -28 -20 -28 -5 0 -9 -8 -9 -19 0
-10 -7 -24 -15 -31 -8 -7 -15 -23 -15 -35 0 -12 -7 -28 -15 -35 -8 -7 -15 -25
-15 -39 0 -15 -7 -36 -15 -47 -8 -10 -15 -35 -15 -55 0 -19 -7 -44 -15 -55
-13 -18 -14 -16 -15 27 0 25 7 54 15 65 8 10 15 31 15 46 0 15 7 33 15 42 8 8
15 26 15 39 0 14 7 30 15 37 8 7 15 20 15 30 0 10 7 23 15 30 8 7 15 19 15 27
0 14 39 75 53 81 4 2 7 8 7 14 0 29 242 298 268 298 5 0 12 7 16 15 3 8 12 15
20 15 7 0 16 7 20 15 3 8 12 15 21 15 8 0 15 4 15 9 0 5 14 14 30 20 17 5 30
15 30 20 0 6 8 11 19 11 10 0 24 7 31 15 7 8 20 15 30 15 10 0 23 7 30 15 7 8
21 15 32 15 11 0 26 7 34 15 9 8 27 15 40 15 14 0 32 7 40 15 9 8 33 15 54 15
21 0 40 5 42 12 3 7 32 13 74 15 38 3 78 8 89 13 11 5 34 11 50 14 51 8 237
-2 249 -14z m836 -161 c7 -72 36 -112 97 -133 26 -9 61 -16 79 -16 44 0 50
-14 18 -39 -56 -44 -170 -19 -227 49 -43 51 -47 140 -9 183 24 28 37 15 42
-44z m-1932 29 c5 -7 15 -30 23 -50 31 -90 -67 -208 -174 -208 -44 0 -107 21
-107 36 0 14 7 17 93 35 79 17 112 54 122 138 7 61 21 76 43 49z m940 -145 c5
-31 -19 -70 -82 -136 -92 -95 -107 -193 -43 -279 25 -33 72 -63 115 -73 16 -3
38 -15 47 -25 19 -21 25 -17 -61 -35 -14 -3 -48 -28 -75 -55 l-49 -49 0 -72
c0 -54 5 -79 20 -104 25 -40 64 -67 108 -74 18 -3 33 -10 33 -15 1 -5 -30 -26
-68 -46 -118 -64 -153 -146 -94 -226 27 -38 39 -45 144 -93 49 -22 55 -41 12
-41 -59 0 -167 -73 -190 -127 -20 -48 -18 -80 8 -133 15 -31 35 -52 67 -70 52
-29 138 -60 168 -60 11 0 25 -6 31 -14 12 -14 5 -46 -10 -46 -5 0 -9 -7 -9
-15 0 -26 61 -19 92 10 75 70 33 128 -122 170 -117 32 -154 69 -127 124 13 27
87 69 124 70 37 1 127 41 145 64 44 55 -2 119 -107 147 -93 26 -145 58 -145
90 0 22 36 53 85 72 22 9 60 24 85 34 121 48 147 139 50 178 -22 9 -62 16 -88
16 -54 0 -107 27 -117 60 -16 50 48 120 108 120 40 0 109 29 135 57 54 59 6
133 -109 167 -35 10 -81 29 -101 42 -34 22 -38 29 -38 67 0 38 5 48 51 92 67
65 95 110 102 164 8 62 14 66 94 51 212 -40 396 -136 546 -284 63 -63 167
-195 167 -213 0 -4 6 -14 13 -22 14 -17 65 -136 90 -211 64 -192 52 -473 -28
-665 -64 -150 -125 -244 -234 -354 -139 -141 -291 -228 -496 -282 -114 -31
-365 -31 -476 -1 -142 38 -279 101 -364 166 -212 162 -330 330 -401 571 -37
126 -42 413 -9 508 8 23 15 50 15 59 0 18 13 51 64 158 94 199 276 382 476
478 132 63 314 112 405 109 33 -2 41 -6 43 -24z m1232 -205 c0 -79 54 -136
150 -158 38 -8 39 -44 2 -59 -69 -29 -161 32 -196 129 -17 48 -18 53 -1 95 23
63 45 60 45 -7z m-2419 20 c26 -32 25 -116 -1 -169 -42 -82 -151 -127 -194
-80 -23 26 -18 32 43 56 29 11 66 34 83 53 30 30 32 37 30 97 -2 70 7 80 39
43z m2595 -343 c-3 -14 -9 -36 -12 -50 -11 -43 6 -78 59 -128 50 -46 51 -49
33 -63 -26 -18 -76 -18 -103 1 -42 29 -63 78 -63 144 0 56 3 66 29 92 38 37
66 39 57 4z m-2721 -56 c47 -90 -27 -241 -109 -225 -17 4 -37 13 -45 21 -12
12 -7 20 38 61 l53 47 -5 61 c-2 34 -8 71 -12 84 l-8 23 37 -22 c20 -12 43
-34 51 -50z m51 -427 c0 -217 2 -251 17 -272 9 -14 17 -42 17 -63 0 -21 7 -45
15 -53 8 -9 15 -28 15 -43 0 -16 7 -34 15 -41 8 -7 15 -23 15 -35 0 -12 7 -28
15 -35 8 -7 15 -21 15 -31 0 -10 5 -21 11 -24 5 -4 15 -17 20 -28 5 -12 18
-35 29 -52 11 -16 23 -38 27 -47 19 -40 244 -278 264 -278 5 0 12 -7 15 -15 4
-8 11 -15 16 -15 6 0 27 -12 47 -27 49 -38 71 -51 104 -64 15 -6 27 -15 27
-20 0 -5 9 -9 19 -9 11 0 26 -7 35 -15 8 -8 26 -15 39 -15 14 0 30 -7 37 -15
7 -8 25 -15 41 -15 15 0 34 -7 43 -15 8 -8 32 -15 53 -15 21 0 51 -7 67 -15
41 -22 461 -22 502 0 16 8 46 15 67 15 21 0 45 7 53 15 9 8 27 15 42 15 15 0
36 7 46 15 11 8 28 15 39 15 10 0 25 7 33 15 9 8 24 15 33 15 10 0 24 7 31 15
7 8 21 15 31 15 11 0 19 5 19 10 0 6 10 15 23 21 48 22 77 41 77 50 0 5 4 9 9
9 38 0 289 263 324 340 4 8 16 29 27 45 11 17 24 40 29 52 5 11 15 24 20 28 6
3 11 17 11 29 0 13 7 29 15 36 8 7 15 25 15 40 0 15 7 33 15 40 8 7 15 27 15
44 0 17 6 40 14 51 7 11 16 51 19 88 7 98 27 112 27 20 0 -50 -4 -76 -15 -87
-8 -8 -15 -32 -15 -56 0 -27 -5 -43 -15 -46 -9 -4 -15 -19 -15 -39 0 -18 -7
-38 -15 -45 -8 -7 -15 -23 -15 -35 0 -12 -7 -28 -15 -35 -8 -7 -15 -21 -15
-32 0 -10 -7 -21 -15 -24 -8 -4 -15 -14 -15 -24 0 -10 -7 -23 -15 -30 -8 -7
-15 -17 -15 -22 0 -30 -195 -254 -269 -308 -18 -14 -41 -33 -49 -42 -9 -10
-22 -18 -29 -18 -7 0 -13 -5 -13 -10 0 -6 -10 -15 -22 -21 -34 -15 -68 -35
-81 -48 -6 -6 -19 -11 -28 -11 -9 0 -22 -7 -29 -15 -7 -8 -20 -15 -30 -15 -10
0 -23 -7 -30 -15 -7 -8 -23 -15 -37 -15 -13 0 -31 -7 -39 -15 -9 -8 -30 -15
-48 -15 -19 0 -39 -7 -46 -15 -8 -10 -31 -15 -65 -15 -34 0 -55 -5 -58 -12 -3
-10 -58 -13 -232 -13 -174 0 -229 3 -233 13 -2 7 -22 12 -51 12 -26 0 -56 7
-67 15 -10 8 -33 15 -50 15 -17 0 -37 7 -44 15 -7 8 -26 15 -42 15 -16 0 -31
6 -34 15 -4 8 -17 15 -30 15 -14 0 -27 7 -30 15 -4 8 -16 15 -29 15 -12 0 -28
7 -35 15 -7 8 -17 15 -22 15 -6 0 -27 14 -48 30 -21 17 -41 30 -45 30 -20 0
-295 275 -295 295 0 7 -3 15 -7 17 -11 4 -53 65 -53 76 0 5 -7 15 -15 22 -8 7
-15 19 -15 27 0 8 -7 21 -15 29 -8 9 -15 24 -15 33 0 10 -7 24 -15 31 -8 7
-15 22 -15 34 0 11 -7 30 -15 40 -8 11 -15 31 -15 45 0 14 -7 35 -15 45 -8 11
-15 38 -15 60 0 23 -7 50 -15 60 -12 16 -15 61 -15 235 0 208 4 261 19 261 4
0 7 -112 7 -248z m2764 123 c0 -8 -4 -15 -10 -15 -14 0 -40 -67 -40 -101 0
-32 11 -56 53 -110 34 -46 36 -73 5 -63 -56 17 -98 90 -98 166 0 47 5 58 37
96 39 44 53 52 53 27z m-2902 -85 c27 -36 30 -109 5 -148 -30 -49 -66 -82 -90
-82 -31 0 -29 9 10 61 37 48 62 112 52 129 -4 6 -10 24 -15 40 -11 40 9 40 38
0z"/>
<path d="M2202 4218 c-64 -105 -119 -252 -158 -421 -21 -88 -17 -99 36 -126
89 -46 83 -45 615 -51 445 -4 510 -7 508 -20 -1 -8 -13 -43 -27 -77 -40 -95
-73 -283 -96 -543 -13 -145 -43 -229 -106 -294 -40 -41 -131 -86 -175 -86 -29
0 -49 -22 -83 -90 -54 -109 -119 -361 -101 -391 12 -19 388 -6 439 15 21 9 46
16 55 17 9 0 36 11 61 24 25 13 54 28 65 34 79 38 209 189 263 304 63 135 122
362 122 472 0 22 7 81 15 130 8 50 15 110 15 135 0 55 22 188 57 335 27 116
40 160 110 373 24 73 41 137 38 142 -4 6 -242 10 -618 10 -636 1 -731 6 -837
45 -51 19 -147 71 -155 86 -11 16 -23 10 -43 -23z"/>
<path d="M4068 4233 c-40 -44 -129 -254 -148 -348 -5 -22 -13 -53 -19 -68 -6
-16 -11 -50 -11 -77 0 -45 3 -51 31 -65 17 -9 58 -25 91 -36 57 -18 94 -19
553 -19 270 0 495 -3 498 -6 4 -4 -2 -23 -12 -43 -54 -101 -86 -264 -116 -591
-8 -78 -27 -161 -50 -214 -35 -83 -155 -166 -237 -166 -31 0 -58 -39 -101
-145 -45 -110 -95 -314 -82 -336 6 -9 56 -10 204 -6 214 6 260 16 389 79 70
35 191 145 238 218 85 132 140 298 168 505 25 177 46 368 46 400 -1 79 79 411
135 565 38 101 67 212 58 221 -6 6 -245 9 -609 9 -722 0 -784 5 -930 86 -27
15 -56 33 -65 40 -13 12 -18 12 -31 -3z"/>
<path d="M5924 4222 c-26 -38 -39 -61 -62 -107 -18 -38 -29 -64 -65 -160 -27
-72 -47 -159 -50 -214 l-2 -55 59 -30 c45 -22 78 -30 133 -34 40 -3 73 -9 73
-14 0 -6 -11 -19 -25 -30 -39 -31 -139 -167 -169 -231 -55 -117 -91 -289 -84
-401 l3 -59 319 1 c244 1 323 5 332 14 35 38 134 337 134 408 0 19 -7 20 -122
20 -68 0 -129 4 -137 9 -33 21 11 143 74 206 69 68 99 75 324 75 168 0 201 -2
201 -14 0 -8 -5 -18 -10 -21 -20 -12 -42 -82 -60 -195 -11 -63 -20 -123 -20
-132 0 -10 19 -28 43 -42 84 -50 137 -132 137 -214 0 -103 -78 -205 -184 -238
-37 -12 -62 -26 -72 -43 -30 -48 -69 -82 -113 -102 -41 -18 -69 -19 -427 -19
l-383 0 -20 -26 c-34 -44 -80 -153 -104 -249 -41 -164 -45 -190 -34 -203 9
-11 113 -13 566 -10 496 4 561 6 606 22 285 99 430 321 465 711 9 100 25 245
42 375 6 47 12 110 14 140 18 246 53 428 120 620 14 41 27 86 28 100 l1 25
-600 6 c-351 4 -621 11 -650 17 -81 16 -149 45 -210 88 -50 35 -52 35 -71 6z"/>
<path d="M2118 3297 c-35 -52 -58 -129 -72 -242 -14 -112 -24 -199 -62 -535
-35 -313 -44 -392 -59 -515 -8 -71 -15 -146 -15 -165 0 -20 -6 -60 -14 -90 -8
-30 -17 -74 -21 -97 l-7 -43 240 0 241 0 30 37 c17 21 33 51 35 68 10 65 38
310 111 968 49 440 52 462 75 557 6 25 12 52 13 60 2 13 -32 15 -239 18 l-241
2 -15 -23z"/>
<path d="M3968 3295 c-10 -13 -18 -28 -18 -34 0 -5 -6 -22 -14 -38 -19 -38
-35 -112 -42 -187 -2 -33 -11 -117 -19 -186 -18 -156 -40 -351 -60 -540 -50
-455 -68 -593 -90 -672 l-7 -28 244 0 c241 0 245 0 265 23 29 32 53 100 53
150 0 23 7 94 15 157 8 63 22 180 30 260 16 151 36 328 60 540 8 69 21 190 30
270 9 80 25 178 36 217 11 40 18 77 14 83 -4 6 -92 10 -243 10 l-237 -1 -17
-24z"/>
<path d="M6653 3148 c-45 -15 -90 -66 -104 -119 -16 -60 8 -126 60 -166 31
-24 45 -28 101 -28 69 0 96 13 136 64 14 20 19 42 19 91 0 79 -26 122 -89 151
-45 20 -75 22 -123 7z"/>
<path d="M6336 1651 c-58 -39 -75 -70 -76 -141 0 -58 3 -69 28 -97 59 -64 132
-82 204 -50 115 52 130 221 25 286 -46 28 -140 29 -181 2z"/>
<path d="M4508 1559 c-15 -8 -18 -26 -18 -114 0 -93 2 -105 19 -115 11 -6 87
-10 176 -10 128 0 157 -3 161 -15 7 -18 -20 -109 -59 -195 -39 -85 -42 -173
-8 -216 39 -49 70 -64 137 -64 59 0 64 2 102 40 55 55 65 134 27 210 -59 117
-81 222 -49 234 9 3 79 6 157 6 102 1 147 4 160 14 14 11 17 30 17 113 0 97
-1 100 -25 111 -34 16 -772 16 -797 1z"/>
<path d="M1437 1364 c-4 -4 -7 -125 -7 -269 0 -229 2 -264 16 -276 14 -11 18
-10 30 6 12 16 14 68 12 280 -3 253 -4 260 -23 263 -12 2 -24 0 -28 -4z"/>
<path d="M2935 1358 c-3 -7 -4 -130 -3 -272 3 -236 5 -260 21 -270 14 -8 20
-8 27 4 6 9 9 122 7 280 l-2 265 -23 3 c-12 2 -24 -3 -27 -10z"/>
<path d="M4060 1303 c-38 -15 -73 -49 -91 -90 -18 -43 -18 -44 2 -88 22 -46
59 -69 101 -63 18 2 23 9 23 33 0 23 -5 30 -25 35 -21 5 -25 12 -25 45 0 34 4
41 26 49 65 22 109 -27 109 -121 0 -84 -44 -133 -120 -133 -49 0 -70 -13 -70
-42 0 -48 124 -50 186 -3 55 42 74 90 74 188 0 71 -4 90 -23 118 -35 54 -119
90 -167 72z"/>
<path d="M758 1289 c-30 -17 -22 -47 17 -63 l35 -15 0 -208 c0 -149 3 -212 12
-221 17 -17 55 -15 62 4 3 9 6 121 6 249 0 230 0 234 -22 249 -25 18 -84 21
-110 5z"/>
<path d="M932 1292 c-8 -5 -12 -22 -10 -38 2 -21 10 -30 28 -34 23 -5 25 -11
28 -72 2 -57 6 -68 23 -73 12 -4 26 -2 31 3 15 15 21 98 11 162 l-8 55 -45 3
c-25 1 -51 -2 -58 -6z"/>
<path d="M1088 1289 c-30 -17 -22 -47 17 -63 33 -14 34 -16 37 -77 3 -69 22
-94 52 -70 13 11 16 34 16 107 0 82 -2 95 -19 104 -25 13 -81 13 -103 -1z"/>
<path d="M1718 1290 c-21 -13 -23 -41 -6 -58 7 -7 42 -12 88 -12 46 0 81 -5
88 -12 8 -8 12 -53 12 -137 0 -139 5 -167 27 -175 37 -15 43 10 43 180 0 158
-1 164 -24 191 -23 26 -29 28 -118 31 -53 1 -100 -2 -110 -8z"/>
<path d="M2012 1288 c-7 -7 -12 -19 -12 -28 0 -30 23 -40 90 -40 38 0 71 -5
78 -12 8 -8 12 -57 12 -155 0 -126 2 -143 18 -152 11 -6 24 -6 35 0 15 9 17
28 16 162 -1 84 -4 163 -8 177 -10 38 -64 60 -146 60 -42 0 -76 -5 -83 -12z"/>
<path d="M2298 1289 c-29 -17 -22 -53 12 -66 28 -11 30 -14 30 -65 0 -64 17
-94 47 -84 26 8 33 33 33 123 0 63 -3 74 -22 87 -25 18 -74 20 -100 5z"/>
<path d="M2462 1288 c-7 -7 -12 -19 -12 -28 0 -29 23 -40 85 -40 34 0 66 -5
73 -12 8 -8 12 -49 12 -120 0 -123 6 -116 -105 -120 -59 -3 -60 -3 -60 -33 l0
-30 120 -5 c66 -3 130 -2 143 2 29 10 28 42 -3 66 -23 19 -25 24 -27 153 l-3
133 -34 23 c-28 19 -48 23 -105 23 -43 0 -77 -5 -84 -12z"/>
<path d="M3213 1294 c-19 -8 -16 -61 3 -68 9 -3 48 -6 88 -6 43 0 77 -5 84
-12 8 -8 12 -56 12 -149 0 -112 3 -141 16 -153 18 -18 17 -18 38 -10 14 5 16
31 16 178 0 172 0 173 -26 197 -23 22 -35 24 -122 26 -53 1 -103 0 -109 -3z"/>
<path d="M3523 1284 c-5 -14 21 -73 62 -142 99 -166 99 -172 8 -172 -40 0 -54
-4 -61 -17 -10 -19 -5 -44 10 -54 12 -8 205 -2 219 6 19 12 9 75 -21 123 -16
27 -30 57 -30 66 0 9 14 35 30 58 17 22 30 50 30 62 0 12 4 27 9 35 7 11 11
10 20 -7 6 -11 21 -22 33 -24 21 -3 23 -9 26 -70 2 -57 6 -68 23 -73 12 -4 25
-3 29 2 5 4 10 52 11 106 2 77 0 101 -12 108 -23 14 -95 11 -109 -6 -12 -14
-15 -14 -31 1 -31 28 -52 14 -73 -48 -10 -32 -24 -58 -30 -58 -6 0 -20 15 -30
33 -43 75 -98 109 -113 71z"/>
<path d="M6379 1144 c-26 -8 -61 -29 -82 -50 -35 -35 -37 -41 -37 -101 0 -71
20 -109 76 -144 41 -25 134 -26 171 -2 84 55 107 156 53 231 -48 67 -107 88
-181 66z"/>
<path d="M1707 1134 c-4 -4 -7 -56 -7 -114 0 -86 3 -110 16 -121 11 -9 20 -10
32 -2 14 8 17 29 17 124 l0 114 -25 3 c-14 2 -29 0 -33 -4z"/>
<path d="M3207 1133 c-13 -12 -8 -218 5 -231 16 -16 23 -15 42 4 12 12 16 37
16 109 0 51 -3 100 -6 109 -6 16 -45 22 -57 9z"/>
</g>
</svg>
